<?xml version="1.0" encoding="utf-8"?>
<!-- Generator: Adobe Illustrator 16.1.0, SVG Export Plug-In . SVG Version: 6.00 Build 0)  -->
<!DOCTYPE svg PUBLIC "-//W3C//DTD SVG 1.1//EN" "http://www.w3.org/Graphics/SVG/1.1/DTD/svg11.dtd">
<svg version="1.1" id="Layer_1" xmlns="http://www.w3.org/2000/svg" xmlns:xlink="http://www.w3.org/1999/xlink" x="0px" y="0px"
	 width="5.115px" height="8.07px" viewBox="0 0 5.115 8.07" enable-background="new 0 0 5.115 8.07" xml:space="preserve">
<path fill="none" d="M-380.659,165.504c0.185,0,0.369-0.065,0.51-0.198c0.282-0.268,0.282-0.698,0-0.966l-3.025-2.858l2.979-2.816
	c0.282-0.266,0.282-0.698,0-0.964c-0.282-0.267-0.738-0.267-1.021,0l-3.489,3.298c-0.135,0.128-0.211,0.301-0.211,0.482
	c0,0.181,0.076,0.354,0.211,0.48l3.536,3.344C-381.028,165.438-380.844,165.504-380.659,165.504z"/>
<path fill="#B2B5B4" d="M4.326,8.037c0.184,0,0.368-0.065,0.51-0.199c0.281-0.267,0.281-0.697,0-0.965L1.811,4.014l2.978-2.816
	c0.282-0.266,0.282-0.698,0-0.964c-0.281-0.268-0.738-0.268-1.021,0l-3.49,3.298c-0.134,0.127-0.211,0.3-0.211,0.482
	c0,0.181,0.076,0.354,0.211,0.48l3.537,3.343C3.957,7.971,4.14,8.037,4.326,8.037z"/>
</svg>
