<?xml version="1.0" encoding="utf-8"?>
<!-- Generator: Adobe Illustrator 16.1.0, SVG Export Plug-In . SVG Version: 6.00 Build 0)  -->
<!DOCTYPE svg PUBLIC "-//W3C//DTD SVG 1.1//EN" "http://www.w3.org/Graphics/SVG/1.1/DTD/svg11.dtd">
<svg version="1.1" id="Layer_1" xmlns="http://www.w3.org/2000/svg" xmlns:xlink="http://www.w3.org/1999/xlink" x="0px" y="0px"
	 width="101px" height="11px" viewBox="0 0 101 11" enable-background="new 0 0 101 11" xml:space="preserve">
<g>
	<g>
		<path fill="#C7C7C7" d="M10.5,5H6.735l2.674-2.674c0.195-0.195,0.195-0.512,0-0.707c-0.195-0.195-0.512-0.195-0.707,0L6,4.321V0.5
			C6,0.224,5.776,0,5.5,0S5,0.224,5,0.5v3.821L2.338,1.659c-0.196-0.196-0.512-0.196-0.707,0c-0.195,0.194-0.195,0.512,0,0.706
			L4.265,5H0.5C0.224,5,0,5.224,0,5.5S0.224,6,0.5,6h3.821l-2.69,2.689c-0.195,0.195-0.195,0.513,0,0.707
			c0.098,0.099,0.226,0.146,0.354,0.146S2.24,9.495,2.338,9.396L5,6.734V10.5C5,10.775,5.224,11,5.5,11S6,10.775,6,10.5V6.734
			l2.702,2.701C8.8,9.534,8.928,9.583,9.056,9.583S9.312,9.534,9.41,9.438c0.195-0.195,0.195-0.513,0-0.707L6.679,6H10.5
			C10.776,6,11,5.776,11,5.5S10.776,5,10.5,5z M40.5,5h-3.765l2.674-2.674c0.195-0.195,0.195-0.512,0-0.707
			c-0.195-0.195-0.512-0.195-0.707,0L36,4.321V0.5C36,0.224,35.776,0,35.5,0S35,0.224,35,0.5v3.821l-2.662-2.662
			c-0.195-0.196-0.512-0.196-0.707,0c-0.195,0.194-0.195,0.512,0,0.706L34.265,5H30.5C30.224,5,30,5.224,30,5.5S30.224,6,30.5,6
			h3.821l-2.69,2.689c-0.195,0.195-0.195,0.513,0,0.707c0.098,0.099,0.226,0.146,0.354,0.146s0.256-0.049,0.354-0.146L35,6.734V10.5
			c0,0.275,0.224,0.5,0.5,0.5s0.5-0.225,0.5-0.5V6.734l2.702,2.701c0.098,0.099,0.226,0.146,0.354,0.146s0.256-0.049,0.354-0.146
			c0.195-0.194,0.195-0.512,0-0.707L36.679,6H40.5C40.776,6,41,5.776,41,5.5S40.776,5,40.5,5z M70.5,5h-3.766l2.675-2.674
			c0.194-0.195,0.194-0.512,0-0.707c-0.196-0.195-0.513-0.195-0.707,0L66,4.321V0.5C66,0.224,65.775,0,65.5,0S65,0.224,65,0.5v3.821
			l-2.662-2.662c-0.195-0.196-0.512-0.196-0.707,0c-0.195,0.194-0.195,0.512,0,0.706L64.266,5H60.5C60.225,5,60,5.224,60,5.5
			S60.225,6,60.5,6h3.82l-2.689,2.689c-0.195,0.195-0.195,0.513,0,0.707c0.098,0.099,0.227,0.146,0.354,0.146
			c0.129,0,0.257-0.049,0.354-0.146L65,6.734V10.5c0,0.275,0.225,0.5,0.5,0.5s0.5-0.225,0.5-0.5V6.734l2.702,2.701
			c0.098,0.099,0.226,0.146,0.354,0.146c0.127,0,0.256-0.049,0.354-0.146c0.195-0.194,0.195-0.512,0-0.707L66.68,6h3.82
			C70.775,6,71,5.776,71,5.5S70.775,5,70.5,5z M100.5,5h-3.766l2.675-2.674c0.194-0.195,0.194-0.512,0-0.707
			c-0.196-0.195-0.513-0.195-0.707,0L96,4.321V0.5C96,0.224,95.775,0,95.5,0S95,0.224,95,0.5v3.821l-2.662-2.662
			c-0.195-0.196-0.512-0.196-0.707,0c-0.195,0.194-0.195,0.512,0,0.706L94.266,5H90.5C90.225,5,90,5.224,90,5.5S90.225,6,90.5,6
			h3.82l-2.689,2.689c-0.195,0.195-0.195,0.513,0,0.707c0.098,0.099,0.227,0.146,0.354,0.146c0.129,0,0.257-0.049,0.354-0.146
			L95,6.734V10.5c0,0.275,0.225,0.5,0.5,0.5s0.5-0.225,0.5-0.5V6.734l2.702,2.701c0.098,0.099,0.226,0.146,0.354,0.146
			c0.127,0,0.256-0.049,0.354-0.146c0.195-0.194,0.195-0.512,0-0.707L96.68,6h3.82c0.275,0,0.5-0.224,0.5-0.5S100.775,5,100.5,5z"/>
	</g>
</g>
</svg>
