<?xml version="1.0" encoding="utf-8"?>
<!-- Generator: Adobe Illustrator 16.1.0, SVG Export Plug-In . SVG Version: 6.00 Build 0)  -->
<!DOCTYPE svg PUBLIC "-//W3C//DTD SVG 1.1//EN" "http://www.w3.org/Graphics/SVG/1.1/DTD/svg11.dtd">
<svg version="1.1" id="Layer_1" xmlns="http://www.w3.org/2000/svg" xmlns:xlink="http://www.w3.org/1999/xlink" x="0px" y="0px"
	 width="56px" height="40px" viewBox="0 0 56 40" enable-background="new 0 0 56 40" xml:space="preserve">
<g>
	<g>
		<path fill="#888888" d="M22.055,32.562c-0.608,0.086-1.208,0.129-1.833,0.129c-7.077,0-12.833-5.693-12.833-12.691
			c0-6.999,5.757-12.692,12.833-12.692c0.625,0,1.225,0.042,1.833,0.129l0.889,0.127V0.17l-0.7-0.07C21.562,0.031,20.92,0,20.222,0
			C9.071,0,0,8.972,0,20c0,11.027,9.071,20,20.222,20c0.693,0,1.335-0.032,2.022-0.1l0.701-0.068l-0.001-7.396L22.055,32.562z
			 M20.222,38.461C9.929,38.461,1.556,30.18,1.556,20c0-10.18,8.373-18.462,18.666-18.462c0.402,0,0.783,0.012,1.167,0.035v4.241
			c-0.384-0.03-0.771-0.046-1.167-0.046C12.288,5.769,5.833,12.153,5.833,20c0,7.848,6.455,14.23,14.389,14.23
			c0.396,0,0.782-0.017,1.167-0.047v4.241C21.004,38.45,20.622,38.461,20.222,38.461z M55.999,32.436l-0.89,0.127
			c-0.607,0.088-1.207,0.131-1.832,0.131c-5.658,0-10.678-3.748-12.289-9.039h11.121v-7.308H40.988
			c1.611-5.291,6.631-9.038,12.289-9.038c0.625,0,1.225,0.042,1.832,0.129l0.89,0.127V0.17L55.3,0.1C54.617,0.031,53.975,0,53.277,0
			c-11.15,0-20.223,8.972-20.223,20c0,11.027,9.071,20,20.223,20c0.691,0,1.336-0.032,2.021-0.1L56,39.832L55.999,32.436z
			 M53.277,38.461c-10.293,0-18.666-8.281-18.666-18.461c0-10.18,8.373-18.462,18.666-18.462c0.402,0,0.783,0.012,1.166,0.035v4.241
			c-0.385-0.03-0.771-0.046-1.166-0.046c-3.301,0-6.524,1.135-9.08,3.194c-2.518,2.03-4.283,4.867-4.975,7.987l-0.205,0.935h11.537
			v4.23H39.018l0.207,0.934c0.689,3.12,2.455,5.957,4.974,7.987c2.556,2.061,5.78,3.193,9.079,3.193
			c0.396,0,0.781-0.016,1.166-0.045l0.002,4.24C54.059,38.45,53.678,38.461,53.277,38.461z"/>
	</g>
</g>
</svg>
