<?xml version="1.0" encoding="utf-8"?>
<!-- Generator: Adobe Illustrator 16.1.0, SVG Export Plug-In . SVG Version: 6.00 Build 0)  -->
<!DOCTYPE svg PUBLIC "-//W3C//DTD SVG 1.1//EN" "http://www.w3.org/Graphics/SVG/1.1/DTD/svg11.dtd">
<svg version="1.1" id="Layer_1" xmlns="http://www.w3.org/2000/svg" xmlns:xlink="http://www.w3.org/1999/xlink" x="0px" y="0px"
	 width="22px" height="16px" viewBox="0 0 22 16" enable-background="new 0 0 22 16" xml:space="preserve">
<g>
	<g>
		<path fill="#CBCBCB" d="M8.665,13.025c-0.239,0.035-0.475,0.052-0.72,0.052c-2.78,0-5.042-2.277-5.042-5.077
			c0-2.799,2.262-5.077,5.042-5.077c0.246,0,0.481,0.017,0.72,0.052l0.349,0.051V0.068L8.739,0.04C8.471,0.013,8.219,0,7.944,0
			C3.564,0,0,3.589,0,8s3.564,8,7.944,8c0.272,0,0.524-0.014,0.794-0.039l0.275-0.027v-2.959L8.665,13.025z M20.93,2.923
			c0.246,0,0.482,0.017,0.721,0.052L22,3.026V0.068L21.725,0.04C21.457,0.013,21.205,0,20.93,0c-4.38,0-7.943,3.589-7.943,8
			s3.563,8,7.943,8c0.273,0,0.525-0.014,0.795-0.039L22,15.934v-2.959l-0.35,0.051c-0.238,0.035-0.476,0.053-0.721,0.053
			c-2.224,0-4.195-1.499-4.828-3.615h4.371V6.539h-4.371C16.734,4.422,18.707,2.923,20.93,2.923z"/>
	</g>
</g>
</svg>
