<?xml version="1.0" encoding="utf-8"?>
<!-- Generator: Adobe Illustrator 16.1.0, SVG Export Plug-In . SVG Version: 6.00 Build 0)  -->
<!DOCTYPE svg PUBLIC "-//W3C//DTD SVG 1.1//EN" "http://www.w3.org/Graphics/SVG/1.1/DTD/svg11.dtd">
<svg version="1.1" id="Layer_1" xmlns="http://www.w3.org/2000/svg" xmlns:xlink="http://www.w3.org/1999/xlink" x="0px" y="0px"
	 width="8.003px" height="4.98px" viewBox="-1.445 1.545 8.003 4.98" enable-background="new -1.445 1.545 8.003 4.98"
	 xml:space="preserve">
<path fill="none" d="M-380.659,165.504c0.185,0,0.369-0.064,0.51-0.197c0.282-0.269,0.282-0.698,0-0.967l-3.025-2.857l2.979-2.816
	c0.282-0.266,0.282-0.698,0-0.964c-0.282-0.267-0.738-0.267-1.021,0l-3.489,3.298c-0.135,0.128-0.211,0.301-0.211,0.482
	c0,0.181,0.076,0.354,0.211,0.479l3.536,3.345C-381.028,165.438-380.844,165.504-380.659,165.504z"/>
<path fill="#B2B5B4" d="M6.559,2.266c0-0.184-0.064-0.368-0.199-0.51c-0.267-0.281-0.696-0.281-0.965,0L2.537,4.781L-0.28,1.803
	c-0.266-0.282-0.698-0.282-0.964,0c-0.269,0.281-0.269,0.738,0,1.021l3.298,3.491c0.127,0.134,0.3,0.211,0.482,0.211
	c0.181,0,0.354-0.076,0.479-0.211l3.342-3.538C6.493,2.635,6.559,2.452,6.559,2.266z"/>
</svg>
