<?xml version="1.0" encoding="utf-8"?>
<!-- Generator: Adobe Illustrator 16.1.0, SVG Export Plug-In . SVG Version: 6.00 Build 0)  -->
<!DOCTYPE svg PUBLIC "-//W3C//DTD SVG 1.1//EN" "http://www.w3.org/Graphics/SVG/1.1/DTD/svg11.dtd">
<svg version="1.1" id="Layer_1" xmlns="http://www.w3.org/2000/svg" xmlns:xlink="http://www.w3.org/1999/xlink" x="0px" y="0px"
	 width="55.988px" height="55.988px" viewBox="0 0 55.988 55.988" enable-background="new 0 0 55.988 55.988" xml:space="preserve">
<g>
	<g>
		<path fill="#4B4D4C" d="M29.642,20.982c0,0.02,0-0.023,0-0.214c0-1.287,0.271-2.063,1.953-2.063c1.555,0,2.979,0.016,2.979,0.016
			l0.109-4.359c0,0-1.396-0.182-3.287-0.182c-4.666,0-6.691,2.878-6.691,6.011c0,2.074,0,3.986,0,3.986h-3.429v4.669h3.429V41.81
			h4.936V28.845h4.847l0.22-4.669h-5.065V20.982z M27.994,0C12.533,0,0,12.534,0,27.994c0,15.461,12.533,27.994,27.994,27.994
			s27.994-12.533,27.994-27.994C55.988,12.534,43.455,0,27.994,0z M27.994,52.97c-13.771,0-24.975-11.204-24.975-24.977
			c0-13.771,11.203-24.974,24.975-24.974c13.772,0,24.975,11.203,24.975,24.975C52.969,41.767,41.765,52.97,27.994,52.97z"/>
	</g>
</g>
</svg>
