<?xml version="1.0" encoding="utf-8"?>
<!-- Generator: Adobe Illustrator 16.1.0, SVG Export Plug-In . SVG Version: 6.00 Build 0)  -->
<!DOCTYPE svg PUBLIC "-//W3C//DTD SVG 1.1//EN" "http://www.w3.org/Graphics/SVG/1.1/DTD/svg11.dtd">
<svg version="1.1" id="Layer_1" xmlns="http://www.w3.org/2000/svg" xmlns:xlink="http://www.w3.org/1999/xlink" x="0px" y="0px"
	 width="216.158px" height="67.355px" viewBox="0 0 216.158 67.355" enable-background="new 0 0 216.158 67.355"
	 xml:space="preserve">
<g>
	<path fill="#FFFFFF" d="M27.078,50.161c-8.8,0.01-15.591-7.506-15.599-16.921c-0.008-9.718,6.711-16.262,15.39-16.269
		c4.339-0.003,10.451,1.827,10.454,5.433l0.002,2.445l5.624-0.003l-0.004-4.22c-0.005-6.905-10.398-9.345-16.203-9.337
		C14.396,11.299,5.113,20.776,5.124,33.247c0.01,12.714,9.002,22.667,21.898,22.654c10.88-0.008,16.984-7.223,16.984-7.222
		l-3.304-4.399C40.703,44.28,35.635,50.152,27.078,50.161z"/>
	<path fill="#FFFFFF" d="M72.552,45.981l0.001,2.784c0.003,0.863-0.491,1.36-1.358,1.36l-12.748,0.011
		c-0.867,0-1.361-0.497-1.362-1.361l-0.011-12.685l15.285-0.01l-0.005-5.321l-15.284,0.012l-0.01-13.674l12.437-0.01
		c0.868,0,1.362,0.43,1.363,1.358l0.001,2.783l5.633-0.005l-0.006-5.506c-0.002-2.785-1.177-3.959-3.962-3.956l-25.681,0.019
		l0.005,5.322l4.022-0.003l0.027,34.403c0.002,2.783,1.179,3.96,3.963,3.957l19.43-0.018c2.783-0.003,3.958-1.178,3.956-3.961
		l-0.004-5.506L72.552,45.981z"/>
	<path fill="#FFFFFF" d="M133.745,50.215c-0.869,0-1.363-0.434-1.363-1.36l-0.014-20.853c-0.004-2.784-1.182-3.959-3.965-3.956
		l-15.779,0.011v-0.867c-0.006-5.812,4.078-6.623,6.432-6.626c0.988,0,1.67,0.122,1.67,0.122l-0.002-5.133
		c0,0-0.934-0.188-2.293-0.188c-3.961,0.006-11.819,1.311-11.811,11.645v1.053l-3.897,0.002l0.004,4.827l3.898-0.002l0.021,26.482
		l6.003-0.008l-0.021-26.48l12.375-0.008c0.867-0.002,1.359,0.489,1.359,1.357l0.02,21.161c0.002,2.784,1.18,3.96,4.023,3.957
		l5.881-0.005l-0.006-5.136L133.745,50.215z"/>
	<path fill="#FFFFFF" d="M148.991,50.203c-0.869,0-1.363-0.433-1.363-1.359l-0.023-33.229c-0.002-2.781-1.18-3.96-3.963-3.957
		l-5.939,0.008l0.002,5.136l2.535-0.003c0.869,0,1.361,0.431,1.365,1.357l0.023,33.229c0.002,2.784,1.18,3.96,3.965,3.957
		l5.939-0.005l-0.004-5.139L148.991,50.203z"/>
	<path fill="#FFFFFF" d="M169.925,23.267c-8.91,0.008-15.711,6.448-15.705,16.415c0.01,9.28,6.758,16.391,16.66,16.383
		c7.426-0.008,12.062-4.588,12.062-4.588l-2.605-4.267c0,0-3.77,3.648-9.15,3.651c-5.566,0.008-10.4-3.761-10.775-10.444
		l22.832-0.021c0,0,0.186-1.671,0.186-2.473C183.419,29.816,178.714,23.261,169.925,23.267z M160.655,36.023
		c0.924-5.2,4.633-7.983,9.215-7.99c3.896-0.002,7.178,2.78,7.369,7.979L160.655,36.023z"/>
	<path fill="#FFFFFF" d="M193.946,31.792c-0.002-2.478,2.287-3.719,5.812-3.722c1.918-0.001,4.701,0.805,4.701,2.657l0.004,1.547
		l5.385-0.004l-0.006-2.969c-0.002-4.766-6.5-6.062-10.271-6.058c-6.375,0.006-11.631,2.796-11.625,8.796
		c0.008,10.087,17.084,9.454,17.088,15.087c0.002,2.722-2.533,4.021-5.441,4.023c-5.756,0.006-9.473-4.634-9.473-4.634l-3.092,4.025
		c0,0,4.15,5.501,12.506,5.496c6.561-0.007,11.506-3.6,11.5-9.168C211.026,36.417,193.95,37.73,193.946,31.792z"/>
	
		<rect x="126.076" y="12.072" transform="matrix(9.377757e-04 1 -1 9.377757e-04 143.8722 -114.4208)" fill="#FFFFFF" width="6.248" height="5.443"/>
</g>
</svg>
