<?xml version="1.0" encoding="utf-8"?>
<!-- Generator: Adobe Illustrator 16.2.0, SVG Export Plug-In . SVG Version: 6.00 Build 0)  -->
<!DOCTYPE svg PUBLIC "-//W3C//DTD SVG 1.1//EN" "http://www.w3.org/Graphics/SVG/1.1/DTD/svg11.dtd">
<svg version="1.1" id="Layer_1" xmlns="http://www.w3.org/2000/svg" xmlns:xlink="http://www.w3.org/1999/xlink" x="0px" y="0px"
	 width="216.158px" height="67.355px" viewBox="0 0 216.158 67.355" enable-background="new 0 0 216.158 67.355"
	 xml:space="preserve">
<path fill="none" d="M94.513,15.986v-0.001V15.986z M20.835,2.174c-7.628,0-13.81,6.181-13.81,13.812v35.388
	c0,0.106-0.059,4.785-0.059,8.67c0,2.258,0.021,4.247,0.082,4.909H83.23c6.419-1.189,11.283-6.816,11.283-13.581V15.986
	c-0.001,0-0.042-3.454-0.055-6.91c-0.003-0.631-0.004-1.261-0.004-1.871c0-2.669,0.027-4.938,0.117-5.034L20.835,2.174L20.835,2.174
	z M94.57,2.174h0.011c-0.001-0.002-0.004-0.003-0.006-0.003C94.574,2.171,94.572,2.172,94.57,2.174"/>
<path fill="#00A79D" d="M94.582,2.174H20.835c-7.628,0-13.81,6.181-13.81,13.812v35.388c0,0.18-0.169,13.574,0.067,13.812h73.611
	c7.626,0,13.81-6.185,13.81-13.812V15.985c0,0.09-0.043-3.41-0.056-6.909C94.444,5.566,94.46,2.053,94.582,2.174z M37.041,54.524
	c-12.065,0.012-20.477-9.3-20.486-21.194c-0.011-11.667,8.673-20.534,20.225-20.542c5.431-0.007,15.154,2.275,15.158,8.735
	l0.004,3.948l-5.261,0.003l-0.002-2.288c-0.002-3.373-5.721-5.085-9.78-5.082c-8.12,0.006-14.405,6.128-14.398,15.22
	c0.007,8.809,6.36,15.839,14.594,15.829c8.005-0.007,12.747-5.501,12.747-5.501l3.091,4.116
	C52.931,47.767,47.219,54.517,37.041,54.524z M81.264,54.095l-18.178,0.017c-2.604,0.003-3.706-1.098-3.708-3.702l-0.025-32.185
	l-3.764,0.002l-0.004-4.979l24.024-0.018c2.605-0.002,3.705,1.096,3.707,3.701l0.006,5.151l-5.27,0.005l-0.001-2.604
	c-0.001-0.869-0.463-1.271-1.275-1.271l-11.635,0.009l0.009,12.792l14.299-0.011l0.004,4.978l-14.3,0.01l0.011,11.867
	c0,0.809,0.463,1.273,1.274,1.273l11.926-0.011c0.811,0,1.273-0.465,1.271-1.272l0-2.604l5.325-0.005l0.004,5.151
	C84.966,52.994,83.867,54.094,81.264,54.095z"/>
<g>
	<path d="M136.884,49.205c-0.812,0-1.274-0.406-1.274-1.273l-0.014-19.508c-0.004-2.605-1.105-3.704-3.71-3.701l-14.762,0.01v-0.811
		c-0.005-5.438,3.816-6.196,6.017-6.199c0.926,0,1.562,0.114,1.562,0.114l-0.002-4.802c0,0-0.873-0.176-2.145-0.175
		c-3.706,0.005-11.057,1.226-11.049,10.894v0.985l-3.646,0.001l0.003,4.516l3.648-0.002l0.02,24.775l5.615-0.007l-0.02-24.774
		l11.577-0.007c0.812-0.002,1.271,0.458,1.271,1.27l0.019,19.797c0.002,2.604,1.104,3.704,3.764,3.701l5.502-0.004l-0.006-4.805
		L136.884,49.205z"/>
	<path d="M151.146,49.193c-0.812,0-1.274-0.404-1.274-1.271l-0.022-31.087c-0.002-2.602-1.103-3.705-3.708-3.702l-5.556,0.007
		l0.002,4.805l2.371-0.002c0.813,0,1.273,0.403,1.277,1.27l0.022,31.087c0.002,2.605,1.104,3.705,3.709,3.702l5.558-0.005
		l-0.005-4.807L151.146,49.193z"/>
	<path d="M170.732,23.994c-8.337,0.007-14.699,6.033-14.693,15.357c0.009,8.682,6.321,15.334,15.586,15.326
		c6.946-0.007,11.284-4.292,11.284-4.292l-2.437-3.991c0,0-3.527,3.413-8.562,3.416c-5.207,0.007-9.729-3.519-10.079-9.771
		l21.359-0.019c0,0,0.173-1.563,0.173-2.313C183.356,30.121,178.954,23.989,170.732,23.994z M162.06,35.927
		c0.864-4.865,4.335-7.469,8.62-7.475c3.646-0.001,6.716,2.601,6.895,7.465L162.06,35.927z"/>
	<path d="M193.204,31.969c-0.002-2.318,2.14-3.479,5.438-3.482c1.795,0,4.398,0.753,4.398,2.486l0.004,1.447l5.037-0.004
		l-0.004-2.777c-0.002-4.459-6.081-5.672-9.61-5.668c-5.964,0.006-10.881,2.616-10.876,8.229
		c0.008,9.437,15.982,8.844,15.986,14.114c0.003,2.547-2.369,3.763-5.091,3.765c-5.384,0.005-8.861-4.335-8.861-4.335l-2.893,3.766
		c0,0,3.883,5.146,11.7,5.142c6.137-0.006,10.764-3.367,10.758-8.577C209.184,36.296,193.209,37.525,193.204,31.969z"/>
	<rect x="130.085" y="13.144" width="5.092" height="5.845"/>
</g>
</svg>
