<?xml version="1.0" encoding="utf-8"?>
<!-- Generator: Adobe Illustrator 16.1.0, SVG Export Plug-In . SVG Version: 6.00 Build 0)  -->
<!DOCTYPE svg PUBLIC "-//W3C//DTD SVG 1.1//EN" "http://www.w3.org/Graphics/SVG/1.1/DTD/svg11.dtd">
<svg version="1.1" id="Layer_1" xmlns="http://www.w3.org/2000/svg" xmlns:xlink="http://www.w3.org/1999/xlink" x="0px" y="0px"
	 width="23px" height="17px" viewBox="0 0 23 17" enable-background="new 0 0 23 17" xml:space="preserve">
<path fill="#FFFFFF" d="M23,9c0,0.552-0.447,1-1,1H1c-0.552,0-1-0.448-1-1V8c0-0.552,0.448-1,1-1h21c0.553,0,1,0.448,1,1V9z"/>
<path fill="#FFFFFF" d="M23,2c0,0.552-0.447,1-1,1H1C0.448,3,0,2.552,0,2V1c0-0.552,0.448-1,1-1h21c0.553,0,1,0.448,1,1V2z"/>
<path fill="#FFFFFF" d="M23,16c0,0.552-0.447,1-1,1H1c-0.552,0-1-0.448-1-1v-1c0-0.552,0.448-1,1-1h21c0.553,0,1,0.448,1,1V16z"/>
</svg>
