<?xml version="1.0" encoding="utf-8"?>
<!-- Generator: Adobe Illustrator 16.1.0, SVG Export Plug-In . SVG Version: 6.00 Build 0)  -->
<!DOCTYPE svg PUBLIC "-//W3C//DTD SVG 1.1//EN" "http://www.w3.org/Graphics/SVG/1.1/DTD/svg11.dtd">
<svg version="1.1" id="Layer_1" xmlns="http://www.w3.org/2000/svg" xmlns:xlink="http://www.w3.org/1999/xlink" x="0px" y="0px"
	 width="6.004px" height="20.01px" viewBox="0 0 6.004 20.01" enable-background="new 0 0 6.004 20.01" xml:space="preserve">
<path fill="#606060" d="M0.87,10.005c-0.223,0-0.445-0.083-0.615-0.25c-0.34-0.333-0.34-0.872,0-1.206l3.649-3.574l-3.593-3.52
	c-0.34-0.333-0.34-0.873,0-1.206c0.339-0.333,0.891-0.333,1.231,0L5.75,4.372c0.162,0.16,0.254,0.376,0.254,0.603
	S5.915,5.418,5.75,5.578L1.486,9.755C1.315,9.922,1.093,10.005,0.87,10.005z"/>
<path fill="#2EB5AB" d="M0.87,20.01c-0.223,0-0.445-0.081-0.615-0.25c-0.34-0.331-0.34-0.87,0-1.204l3.649-3.574l-3.593-3.521
	c-0.34-0.334-0.34-0.873,0-1.207c0.339-0.332,0.891-0.332,1.231,0l4.208,4.123c0.164,0.16,0.256,0.377,0.256,0.604
	c0,0.227-0.092,0.442-0.256,0.602L1.486,19.76C1.315,19.929,1.093,20.01,0.87,20.01z"/>
</svg>
