<?xml version="1.0" encoding="utf-8"?>
<!-- Generator: Adobe Illustrator 16.1.0, SVG Export Plug-In . SVG Version: 6.00 Build 0)  -->
<!DOCTYPE svg PUBLIC "-//W3C//DTD SVG 1.1//EN" "http://www.w3.org/Graphics/SVG/1.1/DTD/svg11.dtd">
<svg version="1.1" id="Layer_1" xmlns="http://www.w3.org/2000/svg" xmlns:xlink="http://www.w3.org/1999/xlink" x="0px" y="0px"
	 width="36.998px" height="37.023px" viewBox="0 0 36.998 37.023" enable-background="new 0 0 36.998 37.023" xml:space="preserve">
<path fill="#A4E5E0" d="M23.487,0c-7.45,0-13.51,5.982-13.51,13.339c0,3.093,1.082,5.936,2.878,8.2L0,34.23l2.83,2.794
	l12.928-12.763c2.193,1.517,4.854,2.414,7.729,2.414c7.451,0,13.511-5.982,13.511-13.337C36.998,5.983,30.938,0,23.487,0z
	 M23.487,23.712c-5.794,0-10.508-4.653-10.508-10.373c0-5.721,4.714-10.374,10.508-10.374c5.795,0,10.509,4.653,10.509,10.374
	C33.996,19.059,29.282,23.712,23.487,23.712z"/>
</svg>
