<?xml version="1.0" encoding="utf-8"?>
<!-- Generator: Adobe Illustrator 16.1.0, SVG Export Plug-In . SVG Version: 6.00 Build 0)  -->
<!DOCTYPE svg PUBLIC "-//W3C//DTD SVG 1.1//EN" "http://www.w3.org/Graphics/SVG/1.1/DTD/svg11.dtd">
<svg version="1.1" id="Layer_1" xmlns="http://www.w3.org/2000/svg" xmlns:xlink="http://www.w3.org/1999/xlink" x="0px" y="0px"
	 width="55px" height="100px" viewBox="0 0 55 100" enable-background="new 0 0 55 100" xml:space="preserve">
<g>
	<g>
		<g>
			<path fill="#D3D3D3" d="M47.245,23.719l-8.879-8.666c-0.717-0.699-1.881-0.699-2.599,0c-0.717,0.701-0.717,1.834,0,2.535
				l7.58,7.397L35.651,32.5c-0.719,0.699-0.719,1.834,0,2.534c0.357,0.35,0.827,0.523,1.299,0.523c0.471,0,0.938-0.175,1.3-0.523
				l8.995-8.781c0.346-0.336,0.537-0.792,0.537-1.268C47.782,24.511,47.59,24.055,47.245,23.719z M30.472,21.868
				c-1.798,0-3.254,1.423-3.254,3.177c0,1.754,1.456,3.176,3.254,3.176c1.797,0,3.254-1.422,3.254-3.176
				C33.726,23.291,32.269,21.868,30.472,21.868z M20.472,21.868c-1.798,0-3.254,1.423-3.254,3.177c0,1.754,1.456,3.176,3.254,3.176
				c1.797,0,3.254-1.422,3.254-3.176C23.726,23.291,22.269,21.868,20.472,21.868z M10.472,21.868c-1.798,0-3.254,1.423-3.254,3.177
				c0,1.754,1.456,3.176,3.254,3.176c1.797,0,3.254-1.422,3.254-3.176C13.726,23.291,12.269,21.868,10.472,21.868z"/>
		</g>
	</g>
	<g>
		<g>
			
				<linearGradient id="SVGID_1_" gradientUnits="userSpaceOnUse" x1="611.5" y1="776.4707" x2="611.5" y2="755.4443" gradientTransform="matrix(1 0 0 1 -584 -691)">
				<stop  offset="0" style="stop-color:#2EB5AB"/>
				<stop  offset="1" style="stop-color:#5ECCC2"/>
			</linearGradient>
			<path fill="url(#SVGID_1_)" d="M47.245,73.635l-8.879-8.666c-0.717-0.699-1.881-0.699-2.599,0c-0.717,0.699-0.717,1.834,0,2.533
				l7.58,7.396l-7.696,7.516c-0.719,0.699-0.719,1.834,0,2.535c0.357,0.35,0.827,0.521,1.299,0.521c0.471,0,0.938-0.174,1.3-0.521
				l8.995-8.781c0.346-0.336,0.537-0.793,0.537-1.27C47.782,74.426,47.59,73.971,47.245,73.635z M30.472,71.783
				c-1.798,0-3.254,1.422-3.254,3.176c0,1.756,1.456,3.178,3.254,3.178c1.797,0,3.254-1.422,3.254-3.178
				C33.726,73.205,32.269,71.783,30.472,71.783z M20.472,71.783c-1.798,0-3.254,1.422-3.254,3.176c0,1.756,1.456,3.178,3.254,3.178
				c1.797,0,3.254-1.422,3.254-3.178C23.726,73.205,22.269,71.783,20.472,71.783z M10.472,71.783c-1.798,0-3.254,1.422-3.254,3.176
				c0,1.756,1.456,3.178,3.254,3.178c1.797,0,3.254-1.422,3.254-3.178C13.726,73.205,12.269,71.783,10.472,71.783z"/>
		</g>
	</g>
</g>
</svg>
