<?xml version="1.0" encoding="utf-8"?>
<!-- Generator: Adobe Illustrator 16.1.0, SVG Export Plug-In . SVG Version: 6.00 Build 0)  -->
<!DOCTYPE svg PUBLIC "-//W3C//DTD SVG 1.1//EN" "http://www.w3.org/Graphics/SVG/1.1/DTD/svg11.dtd">
<svg version="1.1" id="Layer_1" xmlns="http://www.w3.org/2000/svg" xmlns:xlink="http://www.w3.org/1999/xlink" x="0px" y="0px"
	 width="28px" height="28px" viewBox="0 0 28 28" enable-background="new 0 0 28 28" xml:space="preserve">
<path fill="#C2C5C4" d="M14,0.262C6.413,0.262,0.262,6.413,0.262,14S6.413,27.738,14,27.738S27.738,21.587,27.738,14
	S21.587,0.262,14,0.262z M14,25.826C7.48,25.826,2.174,20.521,2.174,14C2.174,7.48,7.48,2.176,14,2.176
	c6.518,0,11.826,5.304,11.826,11.824C25.826,20.521,20.518,25.826,14,25.826z"/>
<g>
	<path fill="#C2C5C4" d="M11.139,7.792c0.732-0.472,1.629-0.706,2.692-0.706c1.397,0,2.562,0.334,3.485,1.004
		c0.931,0.67,1.393,1.659,1.393,2.971c0,0.806-0.202,1.483-0.604,2.033c-0.234,0.334-0.682,0.761-1.351,1.28l-0.659,0.515
		c-0.359,0.278-0.6,0.603-0.715,0.975c-0.074,0.234-0.111,0.602-0.12,1.098h-2.514c0.036-1.049,0.133-1.771,0.295-2.172
		c0.161-0.397,0.573-0.858,1.24-1.377l0.678-0.528c0.22-0.167,0.401-0.351,0.537-0.548c0.247-0.34,0.372-0.714,0.372-1.124
		c0-0.473-0.137-0.899-0.413-1.288c-0.272-0.387-0.776-0.579-1.506-0.579c-0.716,0-1.224,0.239-1.524,0.714
		c-0.3,0.476-0.45,0.973-0.45,1.486H9.291C9.366,9.78,9.98,8.529,11.139,7.792z M12.68,18.232h2.776v2.683H12.68V18.232z"/>
</g>
</svg>
