<?xml version="1.0" encoding="utf-8"?>
<!-- Generator: Adobe Illustrator 16.1.0, SVG Export Plug-In . SVG Version: 6.00 Build 0)  -->
<!DOCTYPE svg PUBLIC "-//W3C//DTD SVG 1.1//EN" "http://www.w3.org/Graphics/SVG/1.1/DTD/svg11.dtd">
<svg version="1.1" id="Layer_1" xmlns="http://www.w3.org/2000/svg" xmlns:xlink="http://www.w3.org/1999/xlink" x="0px" y="0px"
	 width="55.988px" height="55.988px" viewBox="0 0 55.988 55.988" enable-background="new 0 0 55.988 55.988" xml:space="preserve">
<g>
	<g>
		<g>
			<path fill="#4B4D4C" d="M43.667,17.123c-1.219,0.724-2.567,1.247-4.004,1.53c-1.149-1.227-2.789-1.991-4.604-1.991
				c-3.48,0-6.306,2.823-6.306,6.306c0,0.493,0.058,0.976,0.164,1.438c-5.241-0.263-9.887-2.772-12.996-6.587
				c-0.543,0.93-0.854,2.013-0.854,3.17c0,2.186,1.113,4.117,2.806,5.247c-1.034-0.032-2.007-0.316-2.855-0.788
				c-0.001,0.026-0.001,0.052-0.001,0.078c0,3.056,2.174,5.604,5.058,6.183c-0.528,0.146-1.086,0.224-1.66,0.224
				c-0.406,0-0.802-0.041-1.187-0.114c0.802,2.505,3.131,4.328,5.89,4.379c-2.158,1.691-4.877,2.699-7.83,2.699
				c-0.51,0-1.012-0.03-1.505-0.088c2.79,1.789,6.104,2.833,9.665,2.833c11.598,0,17.939-9.608,17.939-17.94
				c0-0.273-0.007-0.545-0.019-0.815c1.232-0.889,2.301-1.999,3.146-3.264c-1.132,0.501-2.347,0.84-3.623,0.992
				C42.197,19.831,43.197,18.596,43.667,17.123z M27.994,0C12.533,0,0,12.534,0,27.994c0,15.461,12.533,27.994,27.994,27.994
				s27.994-12.533,27.994-27.994C55.988,12.534,43.455,0,27.994,0z M27.994,52.97c-13.771,0-24.975-11.204-24.975-24.977
				c0-13.771,11.203-24.974,24.975-24.974c13.772,0,24.977,11.203,24.977,24.974C52.97,41.765,41.765,52.97,27.994,52.97z"/>
		</g>
	</g>
</g>
</svg>
