<?xml version="1.0" encoding="utf-8"?>
<!-- Generator: Adobe Illustrator 16.1.0, SVG Export Plug-In . SVG Version: 6.00 Build 0)  -->
<!DOCTYPE svg PUBLIC "-//W3C//DTD SVG 1.1//EN" "http://www.w3.org/Graphics/SVG/1.1/DTD/svg11.dtd">
<svg version="1.1" id="Layer_1" xmlns="http://www.w3.org/2000/svg" xmlns:xlink="http://www.w3.org/1999/xlink" x="0px" y="0px"
	 width="8.003px" height="4.98px" viewBox="0 0 8.003 4.98" enable-background="new 0 0 8.003 4.98" xml:space="preserve">
<path fill="none" d="M-380.659,165.504c0.185,0,0.369-0.063,0.51-0.196c0.282-0.27,0.282-0.698,0-0.968l-3.025-2.856l2.979-2.816
	c0.282-0.266,0.282-0.697,0-0.964c-0.282-0.267-0.738-0.267-1.021,0l-3.489,3.298c-0.135,0.128-0.211,0.301-0.211,0.482
	c0,0.181,0.076,0.354,0.211,0.479l3.536,3.346C-381.028,165.438-380.844,165.504-380.659,165.504z"/>
<path fill="#B2B5B4" d="M7.802,3.749L4.46,0.211C4.335,0.076,4.162,0,3.981,0C3.799,0,3.626,0.077,3.499,0.211L0.201,3.702
	c-0.269,0.283-0.269,0.74,0,1.021c0.266,0.282,0.698,0.282,0.964,0l2.817-2.978L6.84,4.77c0.269,0.28,0.698,0.28,0.965,0
	C7.941,4.628,8.004,4.444,8.004,4.26C8.004,4.074,7.939,3.891,7.802,3.749z"/>
</svg>
